<mxfile host="65bd71144e">
    <diagram id="diDf0-102_l99asauvzi" name="Page-1">
        <mxGraphModel dx="753" dy="1886" grid="1" gridSize="10" guides="1" tooltips="1" connect="1" arrows="1" fold="1" page="1" pageScale="1" pageWidth="827" pageHeight="1169" math="0" shadow="0">
            <root>
                <mxCell id="0"/>
                <mxCell id="1" parent="0"/>
                <mxCell id="3" value="APP" style="rounded=0;whiteSpace=wrap;html=1;align=left;" vertex="1" parent="1">
                    <mxGeometry x="20" y="-30" width="720" height="520" as="geometry"/>
                </mxCell>
                <mxCell id="6" value="Board" style="whiteSpace=wrap;html=1;aspect=fixed;align=left;fillColor=default;" vertex="1" parent="1">
                    <mxGeometry x="188" y="35.5" width="444" height="444" as="geometry"/>
                </mxCell>
                <mxCell id="7" value="Square" style="whiteSpace=wrap;html=1;aspect=fixed;align=left;" vertex="1" parent="1">
                    <mxGeometry x="234" y="80" width="119" height="119" as="geometry"/>
                </mxCell>
                <mxCell id="8" value="Square" style="whiteSpace=wrap;html=1;aspect=fixed;align=left;" vertex="1" parent="1">
                    <mxGeometry x="353" y="79" width="120" height="120" as="geometry"/>
                </mxCell>
                <mxCell id="9" value="Square" style="whiteSpace=wrap;html=1;aspect=fixed;align=left;" vertex="1" parent="1">
                    <mxGeometry x="473" y="79" width="119" height="119" as="geometry"/>
                </mxCell>
                <mxCell id="10" value="Square" style="whiteSpace=wrap;html=1;aspect=fixed;align=left;" vertex="1" parent="1">
                    <mxGeometry x="235" y="321" width="119" height="119" as="geometry"/>
                </mxCell>
                <mxCell id="11" value="Square" style="whiteSpace=wrap;html=1;aspect=fixed;align=left;" vertex="1" parent="1">
                    <mxGeometry x="354" y="320" width="120" height="120" as="geometry"/>
                </mxCell>
                <mxCell id="12" value="Square" style="whiteSpace=wrap;html=1;aspect=fixed;align=left;" vertex="1" parent="1">
                    <mxGeometry x="474" y="320" width="119" height="119" as="geometry"/>
                </mxCell>
                <mxCell id="13" value="Square" style="whiteSpace=wrap;html=1;aspect=fixed;align=left;" vertex="1" parent="1">
                    <mxGeometry x="234" y="199" width="119" height="119" as="geometry"/>
                </mxCell>
                <mxCell id="14" value="Square" style="whiteSpace=wrap;html=1;aspect=fixed;align=left;" vertex="1" parent="1">
                    <mxGeometry x="353" y="198" width="120" height="120" as="geometry"/>
                </mxCell>
                <mxCell id="15" value="Square" style="whiteSpace=wrap;html=1;aspect=fixed;align=left;" vertex="1" parent="1">
                    <mxGeometry x="473" y="198" width="119" height="119" as="geometry"/>
                </mxCell>
                <mxCell id="16" value="" style="rounded=1;whiteSpace=wrap;html=1;fillColor=default;" vertex="1" parent="1">
                    <mxGeometry x="80" y="100" width="73" height="30.5" as="geometry"/>
                </mxCell>
            </root>
        </mxGraphModel>
    </diagram>
</mxfile>